HIERARCHY
ROOT Hips
{
	OFFSET 0.000000 35.082581 0.000000
	CHANNELS 6 Xposition Yposition Zposition Xrotation Yrotation Zrotation 
	JOINT Spine
	{
		OFFSET 0.000000 6.876099 0.125700
		CHANNELS 3 Xrotation Yrotation Zrotation
		JOINT Spine1
		{
			OFFSET 0.000000 5.730043 0.104720
			CHANNELS 3 Xrotation Yrotation Zrotation
			JOINT Spine1_split
			{
				OFFSET 0.000000 5.730043 0.104720
				CHANNELS 3 Xrotation Yrotation Zrotation
				JOINT Spine2
				{
					OFFSET 0.000000 5.730043 0.104720
					CHANNELS 3 Xrotation Yrotation Zrotation
					JOINT Neck
					{
						OFFSET 0.000000 10.314075 0.188496
						CHANNELS 3 Xrotation Yrotation Zrotation
						JOINT Head
						{
							OFFSET 0.000000 7.643700 -2.377400
							CHANNELS 3 Xrotation Yrotation Zrotation
							JOINT HeadTop_End
							{
								OFFSET 0.000000 43.788605 -13.619600
								CHANNELS 3 Xrotation Yrotation Zrotation
								End Site
								{
									OFFSET 0.000000 0.000000 0.000000
								}
							}
						}
					}
					JOINT LeftShoulder
					{
						OFFSET 2.196100 4.412489 0.087492
						CHANNELS 3 Xrotation Yrotation Zrotation
						JOINT LeftShoulder_split
						{
							OFFSET 2.196100 4.412489 0.087492
							CHANNELS 3 Xrotation Yrotation Zrotation
							JOINT LeftArm
							{
								OFFSET 8.771219 -2.981674 -0.026999
								CHANNELS 3 Xrotation Yrotation Zrotation
								JOINT LeftForeArm
								{
									OFFSET 8.512804 0.000000 -0.000000
									CHANNELS 3 Xrotation Yrotation Zrotation
									JOINT LeftHand
									{
										OFFSET 18.484802 0.000000 -0.000000
										CHANNELS 3 Xrotation Yrotation Zrotation
										JOINT LeftHandThumb1
										{
											OFFSET 2.499420 -1.158070 2.653252
											CHANNELS 3 Xrotation Yrotation Zrotation
											JOINT LeftHandThumb2
											{
												OFFSET 2.370079 -1.368366 1.368366
												CHANNELS 3 Xrotation Yrotation Zrotation
												JOINT LeftHandThumb3
												{
													OFFSET 2.676727 -1.545410 1.545409
													CHANNELS 3 Xrotation Yrotation Zrotation
													JOINT LeftHandThumb4
													{
														OFFSET 1.692226 -0.977005 0.977007
														CHANNELS 3 Xrotation Yrotation Zrotation
														End Site
														{
															OFFSET 0.000000 0.000000 0.000000
														}
													}
												}
											}
										}
										JOINT LeftHandIndex1
										{
											OFFSET 7.924831 -0.457527 2.345128
											CHANNELS 3 Xrotation Yrotation Zrotation
											JOINT LeftHandIndex2
											{
												OFFSET 3.643303 0.000000 0.000000
												CHANNELS 3 Xrotation Yrotation Zrotation
												JOINT LeftHandIndex3
												{
													OFFSET 3.810799 0.000000 0.000000
													CHANNELS 3 Xrotation Yrotation Zrotation
													JOINT LeftHandIndex4
													{
														OFFSET 2.403702 0.000000 0.000000
														CHANNELS 3 Xrotation Yrotation Zrotation
														End Site
														{
															OFFSET 0.000000 0.000000 0.000000
														}
													}
												}
											}
										}
										JOINT LeftHandMiddle1
										{
											OFFSET 8.563995 0.000000 -0.000000
											CHANNELS 3 Xrotation Yrotation Zrotation
											JOINT LeftHandMiddle2
											{
												OFFSET 3.861618 0.000000 0.000000
												CHANNELS 3 Xrotation Yrotation Zrotation
												JOINT LeftHandMiddle3
												{
													OFFSET 3.701603 0.000000 0.000000
													CHANNELS 3 Xrotation Yrotation Zrotation
													JOINT LeftHandMiddle4
													{
														OFFSET 2.322544 0.000000 0.000000
														CHANNELS 3 Xrotation Yrotation Zrotation
														End Site
														{
															OFFSET 0.000000 0.000000 0.000000
														}
													}
												}
											}
										}
										JOINT LeftHandRing1
										{
											OFFSET 8.426460 -0.424637 -3.286992
											CHANNELS 3 Xrotation Yrotation Zrotation
											JOINT LeftHandRing2
											{
												OFFSET 3.126408 0.000000 0.000000
												CHANNELS 3 Xrotation Yrotation Zrotation
												JOINT LeftHandRing3
												{
													OFFSET 3.085026 0.000000 0.000000
													CHANNELS 3 Xrotation Yrotation Zrotation
													JOINT LeftHandRing4
													{
														OFFSET 1.644005 0.000000 0.000000
														CHANNELS 3 Xrotation Yrotation Zrotation
														End Site
														{
															OFFSET 0.000000 0.000000 0.000000
														}
													}
												}
											}
										}
									}
								}
							}
						}
					}
					JOINT RightShoulder
					{
						OFFSET -2.196100 4.412496 0.070690
						CHANNELS 3 Xrotation Yrotation Zrotation
						JOINT RightShoulder_split
						{
							OFFSET -2.196100 4.412496 0.070690
							CHANNELS 3 Xrotation Yrotation Zrotation
							JOINT RightArm
							{
								OFFSET -8.771282 -2.981682 -0.094208
								CHANNELS 3 Xrotation Yrotation Zrotation
								JOINT RightForeArm
								{
									OFFSET -8.494598 0.000000 0.000000
									CHANNELS 3 Xrotation Yrotation Zrotation
									JOINT RightHand
									{
										OFFSET -18.483803 0.000000 0.000001
										CHANNELS 3 Xrotation Yrotation Zrotation
										JOINT RightHandThumb1
										{
											OFFSET -2.527351 -1.008072 2.575253
											CHANNELS 3 Xrotation Yrotation Zrotation
											JOINT RightHandThumb2
											{
												OFFSET -2.321518 -1.340328 1.340329
												CHANNELS 3 Xrotation Yrotation Zrotation
												JOINT RightHandThumb3
												{
													OFFSET -2.657753 -1.534454 1.534455
													CHANNELS 3 Xrotation Yrotation Zrotation
													JOINT RightHandThumb4
													{
														OFFSET -1.807510 -1.043568 1.043567
														CHANNELS 3 Xrotation Yrotation Zrotation
														End Site
														{
															OFFSET 0.000000 0.000000 0.000000
														}
													}
												}
											}
										}
										JOINT RightHandIndex1
										{
											OFFSET -8.811420 0.015533 2.887987
											CHANNELS 3 Xrotation Yrotation Zrotation
											JOINT RightHandIndex2
											{
												OFFSET -3.537502 0.000000 0.000000
												CHANNELS 3 Xrotation Yrotation Zrotation
												JOINT RightHandIndex3
												{
													OFFSET -3.356201 0.000000 0.000000
													CHANNELS 3 Xrotation Yrotation Zrotation
													JOINT RightHandIndex4
													{
														OFFSET -1.933098 0.000000 0.000000
														CHANNELS 3 Xrotation Yrotation Zrotation
														End Site
														{
															OFFSET 0.000000 0.000000 0.000000
														}
													}
												}
											}
										}
										JOINT RightHandMiddle1
										{
											OFFSET -8.178135 0.000000 0.000000
											CHANNELS 3 Xrotation Yrotation Zrotation
											JOINT RightHandMiddle2
											{
												OFFSET -3.901302 0.000000 0.000000
												CHANNELS 3 Xrotation Yrotation Zrotation
												JOINT RightHandMiddle3
												{
													OFFSET -3.909599 0.000000 0.000000
													CHANNELS 3 Xrotation Yrotation Zrotation
													JOINT RightHandMiddle4
													{
														OFFSET -2.376003 0.000000 0.000000
														CHANNELS 3 Xrotation Yrotation Zrotation
														End Site
														{
															OFFSET 0.000000 0.000000 0.000000
														}
													}
												}
											}
										}
										JOINT RightHandRing1
										{
											OFFSET -7.559013 0.014137 -2.865403
											CHANNELS 3 Xrotation Yrotation Zrotation
											JOINT RightHandRing2
											{
												OFFSET -3.449306 0.000000 0.000000
												CHANNELS 3 Xrotation Yrotation Zrotation
												JOINT RightHandRing3
												{
													OFFSET -3.362106 0.000000 0.000000
													CHANNELS 3 Xrotation Yrotation Zrotation
													JOINT RightHandRing4
													{
														OFFSET -2.076401 0.000000 0.000000
														CHANNELS 3 Xrotation Yrotation Zrotation
														End Site
														{
															OFFSET 0.000000 0.000000 0.000000
														}
													}
												}
											}
										}
									}
								}
							}
						}
					}
				}
			}
		}
	}
	JOINT LeftUpLeg
	{
		OFFSET 10.205400 -3.823500 0.155100
		CHANNELS 3 Xrotation Yrotation Zrotation
		JOINT LeftLeg
		{
			OFFSET 0.708757 -12.982077 0.567790
			CHANNELS 3 Xrotation Yrotation Zrotation
			JOINT LeftFoot
			{
				OFFSET -0.708756 -10.717838 -2.184338
				CHANNELS 3 Xrotation Yrotation Zrotation
				JOINT LeftToeBase
				{
					OFFSET 0.108149 -7.191104 7.560241
					CHANNELS 3 Xrotation Yrotation Zrotation
					JOINT LeftToe_End
					{
						OFFSET 0.070230 0.081724 4.490308
						CHANNELS 3 Xrotation Yrotation Zrotation
						End Site
						{
							OFFSET 0.000000 0.000000 0.000000
						}
					}
				}
			}
		}
	}
	JOINT RightUpLeg
	{
		OFFSET -10.205400 -3.823500 0.005500
		CHANNELS 3 Xrotation Yrotation Zrotation
		JOINT RightLeg
		{
			OFFSET -0.708756 -12.982134 0.610632
			CHANNELS 3 Xrotation Yrotation Zrotation
			JOINT RightFoot
			{
				OFFSET 0.708754 -10.717769 -1.945823
				CHANNELS 3 Xrotation Yrotation Zrotation
				JOINT RightToeBase
				{
					OFFSET -0.108140 -7.191069 7.372968
					CHANNELS 3 Xrotation Yrotation Zrotation
					JOINT RightToe_End
					{
						OFFSET -0.070227 0.081735 4.479403
						CHANNELS 3 Xrotation Yrotation Zrotation
						End Site
						{
							OFFSET 0.000000 0.000000 0.000000
						}
					}
				}
			}
		}
	}
}
MOTION
Frames: 4
Frame Time: 0.016667
-2.424162 31.537514 7.609766 -3.718068 -9.752688 -1.281999 5.731636 1.027396 -0.349569 4.739113 -0.064817 0.012273 0.000000 0.000000 0.000000 10.292010 26.036295 -3.377460 3.202049 7.206159 0.255005 3.577886 59.991642 -6.564266 -0.000000 0.000000 -0.000000 8.936035 -24.743277 -2.968056 0.000000 0.000000 0.000000 -31.852840 14.094135 -57.493643 -91.088660 12.820035 -86.878654 -27.577464 -4.331850 -2.991468 0.699133 9.503379 -2.418116 5.975186 12.647538 1.348334 -23.873576 -17.664204 1.604909 -0.000001 0.000003 0.000002 9.479713 -1.289773 -20.785558 0.709477 2.796409 -28.467084 0.714022 2.804789 -28.559746 -0.000001 0.000000 0.000000 10.058161 -1.800592 -20.644711 1.774266 4.200473 -45.782058 1.632176 4.057801 -43.809397 0.000000 -0.000000 0.000000 1.254220 -0.073702 -17.945777 3.754092 5.463639 -68.965287 5.298533 9.638360 -33.747073 -0.000002 -0.000001 -0.000003 10.514905 19.496063 -2.041481 0.000000 0.000000 0.000000 -4.648035 40.347799 49.038969 77.661840 115.432629 -92.279346 -10.082952 20.006792 14.104944 13.942500 -4.273680 -5.300362 7.113153 -20.767448 -2.619498 -3.463284 -24.899779 -18.660459 0.000001 -0.000000 -0.000006 0.357757 -5.832687 5.175839 0.094360 -0.933678 11.539909 0.777657 -2.578468 33.559953 0.000001 0.000001 -0.000002 3.764088 -12.080449 1.143779 5.714305 -4.535855 103.133575 3.160520 -4.410590 71.234946 -0.000001 0.000000 -0.000001 -12.155582 -12.623922 9.228354 6.566868 -4.248454 114.232366 3.755202 -4.569197 78.819680 0.000001 0.000000 0.000000 -34.957608 -4.215885 2.930282 45.881219 -3.603148 -2.601312 -7.568262 -6.165140 -1.238461 -0.152434 0.123968 0.176427 0.000000 0.000002 -0.000000 -25.312403 4.195830 -1.064513 51.535720 9.849980 -4.043371 -23.166569 3.492224 1.336982 -1.112909 1.816886 1.373240 -0.000000 -0.000000 0.000000 
-2.655084 31.618382 7.614514 -3.618451 -8.291202 -1.197369 5.729702 1.052234 -0.352376 4.739294 -0.071921 0.012347 0.000000 0.000000 0.000000 10.288213 26.012984 -3.374272 3.194715 7.149677 0.254699 3.360321 59.445985 -6.494795 0.000000 0.000000 -0.000001 8.935997 -24.743272 -2.968071 0.000000 0.000000 0.000000 -31.749649 14.370494 -57.487892 -91.150193 12.779993 -87.128072 -27.586010 -4.098528 -2.879857 0.699128 9.503378 -2.418113 5.975189 12.647535 1.348332 -23.873574 -17.664204 1.604914 -0.000002 -0.000003 -0.000000 9.479715 -1.289773 -20.785557 0.709478 2.796405 -28.467084 0.714023 2.804786 -28.559751 -0.000001 -0.000000 -0.000000 10.058160 -1.800595 -20.644713 1.774265 4.200476 -45.782058 1.632180 4.057801 -43.809393 0.000000 0.000000 -0.000000 1.254223 -0.073704 -17.945777 3.754091 5.463642 -68.965287 5.298536 9.638361 -33.747073 0.000000 0.000001 0.000001 10.514955 19.487740 -2.039806 0.000000 0.000000 0.000000 -4.646377 40.614695 49.167465 77.464850 115.453679 -92.137339 -9.777779 20.005578 13.914330 13.942501 -4.273680 -5.300361 7.113154 -20.767446 -2.619498 -3.463285 -24.899779 -18.660459 0.000003 0.000000 -0.000002 0.357757 -5.832688 5.175840 0.094360 -0.933675 11.539910 0.777656 -2.578467 33.559950 -0.000001 0.000000 0.000001 3.764088 -12.080446 1.143781 5.714306 -4.535854 103.133575 3.160518 -4.410591 71.234946 -0.000001 0.000000 0.000002 -12.155580 -12.623924 9.228354 6.566870 -4.248455 114.232366 3.755203 -4.569195 78.819680 -0.000001 -0.000001 0.000000 -35.042914 -5.181125 2.681416 44.474893 -4.169656 -2.477490 -6.307544 -6.070421 -1.767247 -0.155643 0.126059 0.180102 0.000000 -0.000000 0.000000 -24.333874 3.303128 -1.309407 50.813961 9.320391 -3.395841 -23.385391 3.654129 0.862743 1.237943 2.059413 2.367459 0.000000 -0.000001 0.000000 
-2.881210 31.690876 7.606710 -3.523404 -6.731395 -1.104610 5.722166 1.073985 -0.351407 4.738550 -0.077031 0.013274 0.000000 0.000000 0.000000 10.277606 25.957787 -3.363605 3.181538 7.089875 0.250241 3.168551 58.869148 -6.463683 0.000000 0.000000 -0.000001 8.936018 -24.743219 -2.968086 0.000000 0.000000 0.000000 -31.626487 14.382068 -57.607885 -91.448692 12.659253 -87.265017 -27.549384 -3.888646 -2.758358 0.699131 9.503378 -2.418112 5.975181 12.647536 1.348330 -23.873570 -17.664203 1.604915 -0.000003 -0.000001 -0.000002 9.479713 -1.289772 -20.785557 0.709477 2.796410 -28.467084 0.714023 2.804787 -28.559748 -0.000002 0.000000 -0.000000 10.058157 -1.800594 -20.644716 1.774264 4.200473 -45.782058 1.632182 4.057802 -43.809393 0.000002 0.000000 0.000001 1.254222 -0.073705 -17.945779 3.754092 5.463639 -68.965287 5.298532 9.638359 -33.747073 -0.000001 0.000000 0.000001 10.515047 19.480688 -2.038395 0.000000 0.000000 0.000000 -4.644163 40.827439 49.316541 77.224366 115.480126 -92.086263 -9.525319 19.966339 13.905995 13.942504 -4.273684 -5.300362 7.113156 -20.767450 -2.619493 -3.463283 -24.899779 -18.660461 0.000003 0.000004 -0.000003 0.357758 -5.832689 5.175838 0.094361 -0.933679 11.539909 0.777656 -2.578469 33.559950 0.000001 0.000001 -0.000002 3.764090 -12.080447 1.143777 5.714306 -4.535853 103.133575 3.160519 -4.410590 71.234946 -0.000000 -0.000000 0.000001 -12.155582 -12.623924 9.228354 6.566869 -4.248454 114.232366 3.755201 -4.569198 78.819680 0.000001 0.000001 -0.000001 -35.202990 -6.117108 2.368442 42.954465 -5.008243 -2.360347 -4.883523 -5.790076 -2.251980 -0.157657 0.128084 0.182468 0.000000 0.000001 0.000000 -23.313375 2.363408 -1.506642 50.245658 8.676306 -2.830556 -23.803679 3.797557 0.278803 1.544051 2.198453 1.886985 -0.000000 -0.000000 0.000000 
-3.098750 31.767673 7.562175 -3.432735 -5.033461 -0.983878 5.707445 1.090714 -0.368269 4.738977 -0.070926 0.012768 0.000000 0.000000 0.000000 10.249801 25.856277 -3.366812 3.164819 7.027050 0.241471 2.845032 57.878722 -6.391082 0.000001 -0.000000 -0.000001 8.936030 -24.743238 -2.968084 0.000000 0.000000 0.000000 -31.289411 14.458626 -57.880293 -91.904362 12.475447 -87.595523 -27.473751 -3.547145 -2.576794 0.699131 9.503378 -2.418109 5.975183 12.647544 1.348332 -23.873570 -17.664198 1.604913 0.000001 0.000003 -0.000002 9.479713 -1.289772 -20.785555 0.709477 2.796407 -28.467081 0.714021 2.804786 -28.559748 -0.000001 0.000000 0.000000 10.058159 -1.800594 -20.644711 1.774265 4.200475 -45.782058 1.632179 4.057800 -43.809393 -0.000001 -0.000000 -0.000001 1.254220 -0.073707 -17.945777 3.754093 5.463639 -68.965281 5.298532 9.638358 -33.747077 0.000002 0.000000 -0.000001 10.514853 19.501184 -2.042486 0.000000 0.000000 0.000000 -4.444139 41.110752 49.507506 76.555697 115.556009 -91.692564 -9.035374 19.920014 13.815838 13.942504 -4.273685 -5.300362 7.113157 -20.767448 -2.619493 -3.463281 -24.899774 -18.660463 0.000003 0.000003 0.000003 0.357758 -5.832688 5.175838 0.094359 -0.933679 11.539909 0.777657 -2.578467 33.559953 0.000001 0.000001 -0.000001 3.764089 -12.080447 1.143779 5.714305 -4.535855 103.133575 3.160520 -4.410591 71.234946 -0.000000 0.000001 0.000000 -12.155580 -12.623924 9.228354 6.566870 -4.248455 114.232366 3.755202 -4.569196 78.819680 0.000000 -0.000000 -0.000000 -35.103098 -6.869029 2.381084 41.853084 -3.623990 -2.284998 -4.013809 -6.472287 -3.092725 -0.101341 0.130123 0.257852 0.000000 0.000001 0.000000 -22.277603 1.394038 -1.683040 49.710684 7.858505 -2.366408 -24.288665 3.912804 -0.294803 1.624212 2.198826 1.985111 0.000000 0.000000 -0.000000 
